<?xml version="1.0" encoding="utf-8"?>
<!-- Generator: Adobe Illustrator 16.0.4, SVG Export Plug-In . SVG Version: 6.00 Build 0)  -->
<!DOCTYPE svg PUBLIC "-//W3C//DTD SVG 1.1//EN" "http://www.w3.org/Graphics/SVG/1.1/DTD/svg11.dtd">
<svg version="1.1" id="Layer_1" xmlns="http://www.w3.org/2000/svg" xmlns:xlink="http://www.w3.org/1999/xlink" x="0px" y="0px"
	 width="227.272px" height="77.934px" viewBox="0 0 227.272 77.934" enable-background="new 0 0 227.272 77.934"
	 xml:space="preserve">
<path d="M21.188,29.65c0.144,0,0.288,0.027,0.432,0.081c0.144,0.054,0.282,0.147,0.414,0.279l2.412,2.538
	c-1.056,1.38-2.379,2.421-3.969,3.123c-1.59,0.702-3.471,1.053-5.643,1.053c-1.992,0-3.777-0.339-5.355-1.017
	c-1.578-0.678-2.916-1.614-4.014-2.808c-1.098-1.194-1.941-2.61-2.529-4.248c-0.588-1.638-0.882-3.417-0.882-5.337
	c0-1.956,0.336-3.753,1.008-5.391c0.672-1.638,1.611-3.051,2.817-4.239s2.648-2.112,4.329-2.772c1.68-0.66,3.534-0.99,5.562-0.99
	c0.984,0,1.911,0.087,2.781,0.261s1.683,0.414,2.439,0.72c0.756,0.306,1.452,0.672,2.088,1.098c0.636,0.426,1.2,0.897,1.692,1.413
	l-2.052,2.754c-0.132,0.168-0.288,0.321-0.468,0.459c-0.18,0.138-0.432,0.207-0.756,0.207c-0.216,0-0.42-0.048-0.612-0.144
	c-0.192-0.096-0.396-0.213-0.612-0.351c-0.216-0.138-0.453-0.288-0.711-0.45c-0.258-0.162-0.564-0.312-0.918-0.45
	c-0.354-0.138-0.768-0.255-1.242-0.351c-0.474-0.096-1.029-0.144-1.665-0.144c-1.104,0-2.112,0.195-3.024,0.585
	c-0.912,0.39-1.695,0.948-2.349,1.674c-0.654,0.726-1.164,1.605-1.53,2.637c-0.366,1.032-0.549,2.19-0.549,3.474
	c0,1.344,0.183,2.538,0.549,3.582s0.864,1.923,1.494,2.637s1.365,1.257,2.205,1.629c0.84,0.372,1.74,0.558,2.7,0.558
	c0.552,0,1.056-0.027,1.512-0.081c0.456-0.054,0.879-0.147,1.269-0.279c0.39-0.132,0.762-0.303,1.116-0.513
	c0.354-0.21,0.711-0.471,1.071-0.783c0.144-0.12,0.3-0.219,0.468-0.297S21.007,29.65,21.188,29.65z"/>
<path d="M62.101,27.67v8.766h-6.084V10.21h9.252c1.848,0,3.435,0.219,4.761,0.657s2.418,1.041,3.276,1.809
	c0.857,0.768,1.491,1.674,1.899,2.718c0.408,1.044,0.612,2.172,0.612,3.384c0,1.308-0.21,2.508-0.63,3.6
	c-0.42,1.092-1.062,2.028-1.926,2.808c-0.864,0.78-1.959,1.389-3.285,1.827c-1.326,0.438-2.896,0.657-4.707,0.657H62.101z
	 M62.101,23.08h3.168c1.584,0,2.724-0.378,3.42-1.134c0.696-0.756,1.044-1.812,1.044-3.168c0-0.6-0.09-1.146-0.27-1.638
	s-0.453-0.915-0.819-1.269c-0.366-0.354-0.828-0.627-1.386-0.819s-1.221-0.288-1.989-0.288h-3.168V23.08z"/>
<path d="M92.052,26.464v9.972h-6.084v-9.972L76.464,10.21h5.364c0.528,0,0.948,0.123,1.26,0.369
	c0.312,0.246,0.564,0.561,0.756,0.945l3.708,7.632c0.3,0.612,0.576,1.176,0.828,1.692s0.474,1.026,0.666,1.53
	c0.18-0.516,0.396-1.032,0.648-1.548c0.252-0.516,0.522-1.074,0.81-1.674l3.672-7.632c0.072-0.156,0.171-0.312,0.297-0.468
	s0.27-0.297,0.432-0.423c0.162-0.126,0.348-0.228,0.558-0.306c0.209-0.078,0.441-0.117,0.693-0.117h5.4L92.052,26.464z"/>
<path d="M109.44,26.734v9.702h-6.084V10.21h8.532c1.896,0,3.513,0.195,4.852,0.585c1.338,0.39,2.43,0.933,3.275,1.629
	c0.846,0.696,1.461,1.519,1.846,2.466c0.383,0.948,0.576,1.98,0.576,3.096c0,0.853-0.115,1.656-0.343,2.412
	s-0.567,1.455-1.017,2.097c-0.45,0.642-1.002,1.215-1.656,1.719c-0.654,0.504-1.407,0.918-2.26,1.242
	c0.408,0.204,0.789,0.456,1.144,0.756c0.354,0.3,0.663,0.666,0.927,1.098l5.58,9.126h-5.508c-1.02,0-1.752-0.384-2.195-1.152
	l-4.356-7.614c-0.192-0.336-0.417-0.576-0.675-0.72s-0.621-0.216-1.089-0.216H109.44z M109.44,22.54h2.448
	c0.828,0,1.533-0.105,2.115-0.315s1.059-0.501,1.431-0.873s0.642-0.807,0.81-1.305c0.168-0.498,0.252-1.035,0.252-1.611
	c0-1.152-0.375-2.052-1.125-2.7c-0.75-0.648-1.91-0.972-3.482-0.972h-2.448V22.54z"/>
<path d="M133.956,36.436h-6.12V10.21h6.12V36.436z"/>
<path d="M151.163,32.044c0.84,0,1.584-0.072,2.232-0.216s1.26-0.336,1.836-0.576v-3.978h-2.592c-0.385,0-0.685-0.102-0.9-0.306
	s-0.324-0.462-0.324-0.774v-3.348h9.324v11.07c-0.672,0.492-1.371,0.915-2.098,1.269c-0.726,0.354-1.5,0.645-2.321,0.873
	c-0.822,0.228-1.698,0.396-2.628,0.504s-1.93,0.162-2.997,0.162c-1.92,0-3.696-0.339-5.328-1.017
	c-1.632-0.678-3.045-1.614-4.239-2.808c-1.193-1.194-2.13-2.61-2.808-4.248c-0.679-1.638-1.017-3.417-1.017-5.337
	c0-1.956,0.324-3.753,0.972-5.391c0.647-1.638,1.575-3.051,2.78-4.239c1.207-1.188,2.664-2.112,4.375-2.772
	c1.709-0.66,3.621-0.99,5.732-0.99c1.092,0,2.118,0.09,3.078,0.27c0.96,0.18,1.846,0.426,2.655,0.738s1.551,0.684,2.223,1.116
	c0.672,0.432,1.272,0.9,1.8,1.404l-1.764,2.682c-0.168,0.252-0.369,0.45-0.604,0.594c-0.233,0.144-0.488,0.216-0.765,0.216
	c-0.36,0-0.731-0.12-1.116-0.36c-0.479-0.288-0.933-0.537-1.358-0.747c-0.427-0.21-0.861-0.381-1.306-0.513
	c-0.443-0.132-0.912-0.228-1.403-0.288c-0.492-0.06-1.044-0.09-1.656-0.09c-1.14,0-2.166,0.201-3.078,0.603
	c-0.912,0.402-1.688,0.969-2.331,1.701s-1.137,1.611-1.484,2.637c-0.349,1.026-0.522,2.169-0.522,3.429
	c0,1.392,0.192,2.628,0.576,3.708s0.915,1.992,1.593,2.736c0.678,0.745,1.482,1.312,2.412,1.701
	C149.042,31.849,150.06,32.044,151.163,32.044z"/>
<path d="M187.343,36.436h-6.119V25.348h-10.656v11.088h-6.12V10.21h6.12v10.962h10.656V10.21h6.119V36.436z"/>
<path d="M210.707,10.21v4.824h-7.38v21.402h-6.084V15.034h-7.381V10.21H210.707z"/>
<path d="M20.449,42.025v4.681H9.685v6.12h8.244v4.5H9.685v6.246h10.764v4.68H3.565V42.025H20.449z"/>
<path d="M30.367,54.77l-8.118-12.744h6.084c0.396,0,0.687,0.052,0.873,0.153c0.186,0.103,0.351,0.273,0.495,0.513l5.22,8.838
	c0.06-0.155,0.129-0.305,0.207-0.449s0.165-0.294,0.261-0.45l4.572-7.849c0.3-0.504,0.708-0.756,1.224-0.756h5.832L38.791,54.5
	l8.406,13.752h-6.084c-0.396,0-0.717-0.096-0.963-0.288s-0.441-0.42-0.585-0.685l-5.256-9.18c-0.096,0.265-0.204,0.492-0.324,0.685
	l-4.896,8.495c-0.144,0.252-0.336,0.478-0.576,0.676c-0.24,0.197-0.54,0.297-0.9,0.297h-5.688L30.367,54.77z"/>
<path d="M66.619,61.466c0.144,0,0.288,0.027,0.432,0.081c0.144,0.055,0.282,0.146,0.414,0.279l2.412,2.537
	c-1.056,1.381-2.379,2.422-3.969,3.123c-1.59,0.703-3.471,1.054-5.643,1.054c-1.992,0-3.777-0.339-5.355-1.017
	c-1.578-0.678-2.916-1.614-4.014-2.809c-1.098-1.193-1.941-2.609-2.529-4.248c-0.588-1.638-0.882-3.417-0.882-5.337
	c0-1.956,0.336-3.753,1.008-5.392c0.672-1.637,1.611-3.051,2.817-4.238s2.648-2.111,4.329-2.771s3.534-0.99,5.562-0.99
	c0.984,0,1.911,0.087,2.781,0.261s1.683,0.414,2.439,0.72c0.756,0.307,1.452,0.672,2.088,1.098c0.636,0.427,1.2,0.898,1.692,1.414
	l-2.052,2.754c-0.132,0.168-0.288,0.32-0.468,0.459c-0.18,0.138-0.432,0.207-0.756,0.207c-0.216,0-0.42-0.049-0.612-0.145
	c-0.192-0.096-0.396-0.213-0.612-0.352c-0.216-0.137-0.453-0.287-0.711-0.449c-0.258-0.162-0.564-0.312-0.918-0.45
	S63.303,47,62.83,46.904c-0.474-0.096-1.029-0.145-1.665-0.145c-1.104,0-2.112,0.195-3.024,0.585
	c-0.912,0.39-1.695,0.948-2.349,1.675c-0.654,0.726-1.164,1.604-1.53,2.637c-0.366,1.031-0.549,2.189-0.549,3.474
	c0,1.345,0.183,2.538,0.549,3.582s0.864,1.923,1.494,2.638c0.63,0.713,1.365,1.256,2.205,1.629c0.84,0.371,1.74,0.558,2.7,0.558
	c0.552,0,1.056-0.027,1.512-0.081c0.456-0.055,0.879-0.146,1.269-0.279c0.39-0.132,0.762-0.303,1.116-0.513
	c0.354-0.21,0.711-0.471,1.071-0.783c0.144-0.12,0.3-0.219,0.468-0.297S66.438,61.466,66.619,61.466z"/>
<path d="M89.532,42.025v4.681H78.768v6.12h8.244v4.5h-8.244v6.246h10.764v4.68H72.648V42.025H89.532z"/>
<path d="M99.072,59.486v8.766h-6.084V42.025h9.252c1.848,0,3.435,0.22,4.761,0.658c1.326,0.438,2.418,1.041,3.276,1.809
	c0.857,0.768,1.491,1.674,1.899,2.718c0.408,1.044,0.612,2.172,0.612,3.384c0,1.309-0.21,2.508-0.63,3.6
	c-0.42,1.093-1.062,2.029-1.926,2.809c-0.864,0.78-1.959,1.389-3.285,1.827c-1.326,0.438-2.896,0.657-4.707,0.657H99.072z
	 M99.072,54.896h3.168c1.584,0,2.724-0.379,3.42-1.135c0.696-0.756,1.044-1.812,1.044-3.168c0-0.6-0.09-1.146-0.27-1.638
	s-0.453-0.915-0.819-1.269c-0.366-0.354-0.828-0.627-1.386-0.819s-1.221-0.288-1.989-0.288h-3.168V54.896z"/>
<path d="M134.999,42.025v4.824h-7.379v21.402h-6.084V46.85h-7.381v-4.824H134.999z"/>
<path d="M144.179,68.252h-6.119V42.025h6.119V68.252z"/>
<path d="M181.708,42.062c0.181,0.023,0.343,0.068,0.486,0.135c0.145,0.066,0.282,0.158,0.414,0.279
	c0.133,0.119,0.282,0.281,0.45,0.485l12.456,15.75c-0.048-0.504-0.084-0.993-0.107-1.467c-0.025-0.474-0.037-0.921-0.037-1.341
	V42.025h5.365v26.227h-3.168c-0.469,0-0.865-0.072-1.188-0.216c-0.324-0.144-0.636-0.408-0.937-0.792L183.077,51.62
	c0.035,0.456,0.065,0.903,0.09,1.341c0.023,0.438,0.035,0.85,0.035,1.232v14.059h-5.363V42.025h3.203
	C181.307,42.025,181.528,42.038,181.708,42.062z"/>
<path d="M219.671,47.354c-0.18,0.289-0.369,0.504-0.567,0.648s-0.453,0.216-0.765,0.216c-0.276,0-0.574-0.087-0.891-0.261
	c-0.318-0.174-0.679-0.369-1.08-0.585c-0.402-0.216-0.861-0.411-1.377-0.585c-0.517-0.174-1.105-0.262-1.765-0.262
	c-1.14,0-1.989,0.244-2.547,0.729s-0.837,1.144-0.837,1.972c0,0.527,0.168,0.965,0.504,1.313s0.777,0.647,1.322,0.899
	c0.547,0.252,1.17,0.484,1.873,0.693c0.701,0.211,1.418,0.444,2.15,0.702c0.732,0.259,1.449,0.562,2.151,0.909
	s1.325,0.792,1.872,1.332c0.545,0.539,0.986,1.197,1.322,1.971s0.504,1.707,0.504,2.799c0,1.213-0.209,2.347-0.629,3.402
	c-0.421,1.057-1.029,1.977-1.828,2.763c-0.798,0.786-1.781,1.404-2.951,1.854c-1.17,0.449-2.5,0.675-3.987,0.675
	c-0.815,0-1.647-0.084-2.493-0.252s-1.664-0.405-2.457-0.711c-0.792-0.306-1.536-0.669-2.232-1.089
	c-0.695-0.42-1.302-0.889-1.817-1.404l1.8-2.844c0.133-0.217,0.318-0.391,0.559-0.522s0.498-0.198,0.773-0.198
	c0.36,0,0.723,0.115,1.09,0.342c0.365,0.229,0.779,0.48,1.241,0.757s0.993,0.528,1.593,0.756s1.309,0.342,2.125,0.342
	c1.104,0,1.961-0.243,2.573-0.729c0.612-0.485,0.918-1.256,0.918-2.312c0-0.611-0.168-1.109-0.504-1.494
	c-0.336-0.384-0.776-0.701-1.323-0.953c-0.546-0.252-1.167-0.475-1.863-0.666c-0.695-0.192-1.41-0.406-2.142-0.64
	s-1.446-0.522-2.142-0.864c-0.696-0.342-1.317-0.791-1.863-1.35s-0.987-1.254-1.322-2.088c-0.337-0.834-0.505-1.863-0.505-3.088
	c0-0.982,0.198-1.943,0.595-2.879c0.396-0.937,0.978-1.771,1.746-2.502c0.768-0.732,1.709-1.317,2.825-1.756
	c1.116-0.438,2.394-0.656,3.834-0.656c0.804,0,1.587,0.062,2.349,0.188c0.763,0.126,1.486,0.312,2.17,0.558
	c0.684,0.246,1.322,0.541,1.916,0.883c0.595,0.342,1.125,0.729,1.594,1.16L219.671,47.354z"/>
<path d="M52.12,18.04c-0.654-1.632-1.575-3.048-2.763-4.248c-0.367-0.371-0.766-0.708-1.179-1.031l-4.208,3.542
	c0.345,0.258,0.664,0.546,0.95,0.873c0.63,0.72,1.113,1.599,1.449,2.637c0.336,1.038,0.504,2.205,0.504,3.501
	c0,1.308-0.168,2.481-0.504,3.519c-0.336,1.038-0.819,1.917-1.449,2.637c-0.63,0.72-1.401,1.269-2.313,1.647
	s-1.95,0.567-3.114,0.567c-1.176,0-2.223-0.189-3.141-0.567S34.66,30.19,34.03,29.47c-0.63-0.72-1.113-1.599-1.449-2.637
	c-0.336-1.038-0.504-2.211-0.504-3.519c0-1.296,0.168-2.463,0.504-3.501c0.336-1.038,0.819-1.917,1.449-2.637
	c0.63-0.72,1.404-1.272,2.322-1.656c0.918-0.384,1.965-0.576,3.141-0.576c0.761,0,1.463,0.091,2.117,0.255l-0.157-5.149
	c-0.636-0.076-1.284-0.128-1.96-0.128c-2.04,0-3.9,0.342-5.58,1.026c-1.68,0.684-3.117,1.626-4.311,2.826
	c-1.194,1.2-2.118,2.616-2.772,4.248c-0.654,1.632-0.981,3.396-0.981,5.292c0,1.896,0.327,3.66,0.981,5.292
	c0.654,1.632,1.578,3.051,2.772,4.257c1.194,1.206,2.631,2.151,4.311,2.835c1.68,0.684,3.54,1.026,5.58,1.026
	s3.897-0.342,5.571-1.026c1.674-0.684,3.105-1.629,4.293-2.835c1.188-1.206,2.109-2.625,2.763-4.257
	c0.654-1.632,0.981-3.396,0.981-5.292C53.101,21.43,52.774,19.672,52.12,18.04z"/>
<path d="M173.942,49.855c-0.654-1.631-1.576-3.047-2.764-4.248c-1.188-1.199-2.619-2.145-4.293-2.834
	c-1.674-0.69-3.531-1.035-5.57-1.035c-2.041,0-3.9,0.342-5.58,1.025c-1.681,0.684-3.117,1.627-4.312,2.826
	c-1.194,1.2-2.118,2.616-2.772,4.248c-0.654,1.633-0.98,3.396-0.98,5.292c0,1.896,0.326,3.66,0.98,5.292
	c0.654,1.633,1.578,3.051,2.772,4.257c0.457,0.461,0.96,0.872,1.487,1.257l4.02-3.682c-0.396-0.278-0.757-0.601-1.078-0.968
	c-0.631-0.72-1.113-1.599-1.449-2.638c-0.336-1.037-0.504-2.211-0.504-3.519c0-1.296,0.168-2.463,0.504-3.501
	c0.336-1.037,0.818-1.917,1.449-2.637c0.629-0.721,1.403-1.271,2.321-1.656c0.918-0.384,1.965-0.576,3.142-0.576
	c1.163,0,2.201,0.192,3.113,0.576c0.912,0.385,1.684,0.936,2.312,1.656c0.631,0.72,1.113,1.6,1.449,2.637
	c0.336,1.038,0.504,2.205,0.504,3.501c0,1.308-0.168,2.481-0.504,3.519c-0.336,1.039-0.818,1.918-1.449,2.638
	c-0.629,0.72-1.4,1.269-2.312,1.647c-0.912,0.377-1.95,0.566-3.113,0.566c-0.64,0-1.237-0.061-1.8-0.173l0.372,5.151
	c0.467,0.039,0.941,0.062,1.428,0.062c2.039,0,3.896-0.343,5.57-1.026s3.105-1.629,4.293-2.835s2.109-2.624,2.764-4.257
	c0.653-1.632,0.98-3.396,0.98-5.292C174.923,53.246,174.596,51.488,173.942,49.855z"/>
<path d="M153.735,71.514c1.279,0.521,2.664,0.841,4.152,0.965l-0.372-5.15c-0.474-0.094-0.923-0.223-1.342-0.395
	c-0.449-0.186-0.862-0.412-1.243-0.68l-4.02,3.682C151.764,70.557,152.697,71.092,153.735,71.514z"/>
<path d="M47.174,7.256c-1.251-0.587-2.618-0.978-4.098-1.178l0.106,5.162c0.468,0.118,0.91,0.271,1.319,0.464
	c0.439,0.208,0.841,0.456,1.207,0.743l4.205-3.47C49.093,8.313,48.188,7.73,47.174,7.256z"/>
</svg>
